<?xml version="1.0" encoding="UTF-8" standalone="no"?>
<!-- Generator: Adobe Illustrator 14.0.0, SVG Export Plug-In . SVG Version: 6.00 Build 43363)  -->

<svg
   xmlns:dc="http://purl.org/dc/elements/1.1/"
   xmlns:cc="http://creativecommons.org/ns#"
   xmlns:rdf="http://www.w3.org/1999/02/22-rdf-syntax-ns#"
   xmlns:svg="http://www.w3.org/2000/svg"
   xmlns="http://www.w3.org/2000/svg"
   xmlns:sodipodi="http://sodipodi.sourceforge.net/DTD/sodipodi-0.dtd"
   xmlns:inkscape="http://www.inkscape.org/namespaces/inkscape"
   version="1.1"
   id="Layer_1"
   x="0px"
   y="0px"
   width="45"
   height="20"
   viewBox="0 0 33.815738 15"
   enable-background="new 0 0 23.662 7.128"
   xml:space="preserve"
   sodipodi:docname="buttonoff.svg"
   inkscape:version="0.92.5 (2060ec1f9f, 2020-04-08)"><metadata
   id="metadata96"><rdf:RDF><cc:Work
       rdf:about=""><dc:format>image/svg+xml</dc:format><dc:type
         rdf:resource="http://purl.org/dc/dcmitype/StillImage" /><dc:title /></cc:Work></rdf:RDF></metadata><defs
   id="defs94" /><sodipodi:namedview
   pagecolor="#ffffff"
   bordercolor="#666666"
   borderopacity="1"
   objecttolerance="10"
   gridtolerance="10"
   guidetolerance="10"
   inkscape:pageopacity="0"
   inkscape:pageshadow="2"
   inkscape:window-width="1294"
   inkscape:window-height="704"
   id="namedview92"
   showgrid="false"
   units="px"
   inkscape:zoom="12.132476"
   inkscape:cx="37.676074"
   inkscape:cy="9.0273979"
   inkscape:window-x="72"
   inkscape:window-y="27"
   inkscape:window-maximized="1"
   inkscape:current-layer="Layer_1" />
<g
   id="svg"
   transform="matrix(1.4285896,0,0,2.1175102,0,-0.03913977)">
	<rect
   id="connector0terminal"
   x="22.603001"
   y="3.4979999"
   width="0.0099999998"
   height="0.25299999"
   style="fill:none" />
	<polygon
   id="connector0pin"
   points="20.167,2.369 23.661,2.369 23.661,4.757 20.167,4.757 "
   style="fill:none" />
	<rect
   id="connector1terminal"
   x="1.031"
   y="3.4979999"
   width="0.035999998"
   height="0.26899999"
   style="fill:none" />
	<polygon
   id="connector1pin"
   points="0,2.369 3.668,2.369 3.668,4.757 0,4.757 "
   style="fill:none" />
	<g
   id="breadboard">
		<polygon
   id="wefwf"
   points="0,2.369 23.661,2.369 23.661,4.757 0,4.757 "
   style="fill:#8c8c8c" />
		<path
   id="path21_8_"
   d="M 4.478,7.111 C 3.687,7.111 3.665,6.84 3.665,6.486 V 2.669 C 3.663,2.32 3.923,2.039 4.714,2.039 h 14.393 c 0.799,0 1.063,0.283 1.063,0.645 V 6.49 c 0.006,0.354 -0.271,0.622 -1.063,0.622 z"
   inkscape:connector-curvature="0"
   style="fill:#474747" />
		<path
   id="path21_7_"
   d="M 4.478,6.021 C 3.687,6.021 3.665,5.74 3.665,5.397 V 0.641 C 3.664,0.296 3.924,0.016 4.715,0.016 h 14.392 c 0.801,0 1.063,0.283 1.063,0.624 v 4.756 c 0.006,0.344 -0.271,0.622 -1.063,0.622 z"
   inkscape:connector-curvature="0"
   style="fill:#666666" />
		<g
   id="g84">
			<ellipse
   cx="5.3670001"
   cy="3.0109999"
   rx="0.64600003"
   ry="0.48699999"
   id="ellipse80" />
			<ellipse
   cx="18.417"
   cy="3.0109999"
   rx="0.64499998"
   ry="0.48699999"
   id="ellipse82" />
		</g>
		<path
   id="path21_10_"
   d="M 16.688,1.765 V 4.646 C 16.69,4.902 16.43,5.218 15.844,5.218 H 7.973 C 7.385,5.218 7.142,4.904 7.14,4.646 V 1.765"
   inkscape:connector-curvature="0"
   style="fill:none;stroke:#333333;stroke-width:0.40000001" />
		<path
   id="path21_6_"
   d="M 8.13,5.085 C 7.536,5.085 7.298,4.874 7.295,4.606 V 1.633 c 0,-0.254 0.194,-0.468 0.782,-0.468 h 7.678 c 0.592,0 0.785,0.229 0.787,0.479 V 4.621 C 16.548,4.892 16.286,5.1 15.696,5.1 Z"
   inkscape:connector-curvature="0"
   style="fill:#c4c4c4" />
		<path
   id="path21_5_"
   d="M 8.13,4.251 C 7.536,4.251 7.298,4.041 7.295,3.772 V 1.014 C 7.295,0.759 7.489,0.55 8.077,0.55 h 7.678 c 0.592,0 0.785,0.209 0.787,0.464 v 2.768 c 0.004,0.271 -0.256,0.479 -0.846,0.479 z"
   inkscape:connector-curvature="0"
   style="fill:#ededed" />
	</g>
</g>
</svg>